<svg xmlns="http://www.w3.org/2000/svg" viewBox="0 0 32 32">
  <defs>
    <linearGradient id="wg" x1="0%" y1="50%" x2="100%" y2="50%">
      <stop offset="0%" stop-color="#1565C0"/>
      <stop offset="40%" stop-color="#00ACC1"/>
      <stop offset="70%" stop-color="#43A047"/>
      <stop offset="100%" stop-color="#FDD835"/>
    </linearGradient>
  </defs>
  <rect width="32" height="32" rx="8" fill="#060B18"/>
  <!-- Left wing -->
  <path d="M15.5 16 C12 13, 6 11, 1 10 C4 13, 7 14, 9 15 C6 14, 3 14, 1 16 C4 17, 7 17, 9 16.5 C6 17, 4 19, 2 21 C5 20.5, 8 19, 11 17.5 L15.5 16Z" fill="url(#wg)"/>
  <!-- Right wing -->
  <path d="M16.5 16 C20 13, 26 11, 31 10 C28 13, 25 14, 23 15 C26 14, 29 14, 31 16 C28 17, 25 17, 23 16.5 C26 17, 28 19, 30 21 C27 20.5, 24 19, 21 17.5 L16.5 16Z" fill="url(#wg)"/>
  <!-- Center glow -->
  <circle cx="16" cy="16" r="2" fill="#FDD835" opacity="0.8"/>
</svg>
